# xmcd
#
# Track frame offsets: 
#        150
#        17441
#        38727
#        61898
#        91336
#        113207
#        133770
#        151320
#        173040
#        198527
#        224519
#        251041
#
# Disc length: 3495 seconds
#
# Revision: 6
# Processed by: cddbd v1.5.2PL0 Copyright (c) Steve Scherf et al.
# Submitted via: ExactAudioCopy v0.99pb5
#
DISCID=a20da50c
DTITLE=Brian Culbertson - It's On Tonight
DYEAR=2005
DGENRE=Jazz
TTITLE0=Let's Get Started
TTITLE1=Hookin' Up
TTITLE2=It's On Tonight
TTITLE3=Sensuality
TTITLE4=The Way You Feel
TTITLE5=Forbidden Love
TTITLE6=Dreaming Of You
TTITLE7=Wear It Out
TTITLE8=Secret Affair
TTITLE9=Touch Me
TTITLE10=Love Will Never Let You Down
TTITLE11=Reflections
EXTD=
EXTT0=
EXTT1=
EXTT2=
EXTT3=
EXTT4=
EXTT5=
EXTT6=
EXTT7=
EXTT8=
EXTT9=
EXTT10=
EXTT11=
PLAYORDER=
